<svg width="40" height="40" viewBox="0 0 40 40" fill="none" xmlns="http://www.w3.org/2000/svg">
<rect width="40" height="40" rx="20" fill="#F13327" fill-opacity="0.25"/>
<path d="M14.1666 27.5H25.8333M19.6349 12.7217C19.6709 12.6563 19.7238 12.6018 19.788 12.5639C19.8522 12.526 19.9254 12.506 19.9999 12.506C20.0745 12.506 20.1477 12.526 20.2119 12.5639C20.2761 12.6018 20.329 12.6563 20.3649 12.7217L22.8249 17.3917C22.8836 17.4998 22.9655 17.5936 23.0647 17.6663C23.1639 17.7391 23.278 17.7889 23.3988 17.8124C23.5196 17.8358 23.644 17.8322 23.7632 17.8018C23.8824 17.7714 23.9934 17.715 24.0883 17.6367L27.6524 14.5833C27.7209 14.5277 27.8052 14.4952 27.8932 14.4905C27.9813 14.4858 28.0686 14.5092 28.1425 14.5573C28.2165 14.6054 28.2732 14.6757 28.3047 14.7581C28.3361 14.8405 28.3406 14.9307 28.3174 15.0158L25.9558 23.5542C25.9076 23.7289 25.8037 23.8831 25.66 23.9935C25.5162 24.1039 25.3404 24.1644 25.1591 24.1658H14.8416C14.6602 24.1646 14.4842 24.1041 14.3403 23.9937C14.1963 23.8834 14.0924 23.729 14.0441 23.5542L11.6833 15.0167C11.6602 14.9315 11.6646 14.8413 11.6961 14.7589C11.7275 14.6765 11.7843 14.6062 11.8582 14.5581C11.9321 14.51 12.0194 14.4866 12.1075 14.4913C12.1955 14.496 12.2799 14.5285 12.3483 14.5842L15.9116 17.6375C16.0064 17.7159 16.1175 17.7723 16.2367 17.8026C16.3559 17.833 16.4803 17.8366 16.6011 17.8132C16.7219 17.7898 16.836 17.7399 16.9352 17.6672C17.0344 17.5944 17.1163 17.5006 17.1749 17.3925L19.6349 12.7217Z" stroke="#F13327" stroke-width="1.66667" stroke-linecap="round" stroke-linejoin="round"/>
</svg>
