<svg width="1088" height="340" viewBox="0 0 1088 340" fill="none" xmlns="http://www.w3.org/2000/svg">
<g opacity="0.5">
<path d="M256.18 197.044C261.527 196.174 266.27 193.505 269.763 189.68C270.577 184.523 271 179.236 271 173.851C271 118.153 225.781 73 170 73C114.219 73 69 118.153 69 173.851C69 179.236 69.4227 184.523 70.2369 189.68C73.7304 193.505 78.4726 196.174 83.8199 197.044C81.8289 189.649 80.767 181.874 80.767 173.851C80.767 124.642 120.718 84.7496 170 84.7496C219.282 84.7496 259.233 124.642 259.233 173.851C259.233 181.874 258.171 189.649 256.18 197.044Z" fill="#F13327"/>
<path d="M244.034 173.851C244.034 179.788 243.336 185.549 242.02 191.063C236.183 187.555 232.275 181.17 232.267 173.874L232.267 173.851C232.267 139.513 204.389 111.676 170 111.676C135.611 111.676 107.733 139.513 107.733 173.851C107.733 181.157 103.823 187.552 97.9797 191.063C96.664 185.549 95.966 179.788 95.966 173.851C95.966 133.023 129.112 99.9262 170 99.9262C210.888 99.9262 244.034 133.023 244.034 173.851Z" fill="#F13327"/>
<path d="M201.945 158.831C204.633 157.179 207.797 156.227 211.184 156.227C212.045 156.227 212.892 156.288 213.719 156.407C206.782 139.087 189.822 126.852 170 126.852C150.178 126.852 133.218 139.087 126.281 156.407C127.108 156.288 127.955 156.227 128.816 156.227C132.203 156.227 135.367 157.179 138.055 158.831C143.703 146.876 155.884 138.602 170 138.602C184.116 138.602 196.297 146.876 201.945 158.831Z" fill="#F13327"/>
</g>
<circle cx="170" cy="174" r="12" fill="#F13327" stroke="#F13327" stroke-width="20.1262"/>
<mask id="mask0_1_57" style="mask-type:alpha" maskUnits="userSpaceOnUse" x="69" y="73" width="202" height="202">
<circle cx="170" cy="174" r="101" fill="black"/>
</mask>
<g mask="url(#mask0_1_57)">
<path fill-rule="evenodd" clip-rule="evenodd" d="M134.699 174C134.699 170.751 132.065 168.116 128.816 168.116C125.566 168.116 122.932 170.751 122.932 174C122.932 193.496 107.127 209.301 87.6311 209.301L44.4855 209.301V221.068H87.6311C101.689 221.068 114.308 214.905 122.932 205.133V232.345H44.4855V244.112H122.932V266.175C122.932 269.424 125.566 272.058 128.816 272.058C132.065 272.058 134.699 269.424 134.699 266.175V244.112H205.301V266.175C205.301 269.424 207.935 272.058 211.184 272.058C214.434 272.058 217.068 269.424 217.068 266.175V244.112L295.515 244.112V232.345H217.068V205.133C225.693 214.905 238.311 221.068 252.369 221.068H295.515V209.301H252.369C232.873 209.301 217.068 193.496 217.068 174C217.068 170.751 214.434 168.116 211.184 168.116C207.935 168.116 205.301 170.751 205.301 174C205.301 193.496 189.496 209.301 170 209.301C150.504 209.301 134.699 193.496 134.699 174ZM134.699 232.345H205.301V205.133C196.676 214.905 184.058 221.068 170 221.068C155.942 221.068 143.324 214.905 134.699 205.133V232.345Z" fill="#181818"/>
</g>
<path d="M376.763 215.743C366.26 215.743 357.635 213.263 350.888 208.303C344.142 203.258 340.512 196.074 340 186.753H366.772C367.028 189.917 367.968 192.226 369.59 193.68C371.213 195.134 373.305 195.861 375.867 195.861C378.173 195.861 380.051 195.305 381.503 194.193C383.04 192.996 383.809 191.371 383.809 189.319C383.809 186.668 382.57 184.615 380.094 183.161C377.617 181.708 373.604 180.083 368.053 178.287C362.161 176.32 357.378 174.439 353.706 172.643C350.12 170.761 346.96 168.068 344.227 164.561C341.58 160.97 340.256 156.309 340.256 150.579C340.256 144.764 341.708 139.804 344.611 135.699C347.515 131.509 351.529 128.345 356.652 126.207C361.776 124.069 367.583 123 374.073 123C384.577 123 392.946 125.48 399.18 130.44C405.5 135.314 408.873 142.199 409.3 151.092H382.015C381.93 148.356 381.076 146.303 379.453 144.935C377.916 143.567 375.909 142.883 373.433 142.883C371.554 142.883 370.017 143.439 368.822 144.55C367.626 145.662 367.028 147.244 367.028 149.297C367.028 151.007 367.669 152.503 368.95 153.786C370.316 154.983 371.981 156.052 373.945 156.993C375.909 157.848 378.813 158.96 382.656 160.328C388.377 162.295 393.074 164.262 396.746 166.229C400.504 168.11 403.706 170.804 406.354 174.31C409.086 177.731 410.453 182.092 410.453 187.394C410.453 192.782 409.086 197.614 406.354 201.89C403.706 206.166 399.821 209.543 394.697 212.023C389.658 214.503 383.681 215.743 376.763 215.743Z" fill="#181818"/>
<path d="M464.524 193.423V214.846H453.636C435.276 214.846 426.095 205.738 426.095 187.523V163.792H417.257V142.883H426.095V125.437H451.33V142.883H464.396V163.792H451.33V187.908C451.33 189.874 451.757 191.286 452.611 192.141C453.55 192.996 455.088 193.423 457.223 193.423H464.524Z" fill="#181818"/>
<path d="M501.146 155.582C503.965 151.477 507.38 148.228 511.394 145.833C515.408 143.439 519.72 142.241 524.332 142.241V169.051H517.286C511.821 169.051 507.765 170.12 505.117 172.258C502.47 174.396 501.146 178.116 501.146 183.418V214.846H476.04V142.883H501.146V155.582Z" fill="#181818"/>
<path d="M606.859 142.883V214.846H581.625V204.583C579.49 207.833 576.543 210.484 572.786 212.537C569.028 214.503 564.716 215.487 559.848 215.487C551.479 215.487 544.861 212.75 539.993 207.277C535.211 201.719 532.82 194.193 532.82 184.701V142.883H557.799V181.494C557.799 185.599 558.866 188.848 561.001 191.243C563.221 193.552 566.125 194.706 569.712 194.706C573.384 194.706 576.287 193.552 578.422 191.243C580.557 188.848 581.625 185.599 581.625 181.494V142.883H606.859Z" fill="#181818"/>
<path d="M617.049 178.8C617.049 171.36 618.586 164.861 621.66 159.302C624.735 153.743 629.005 149.468 634.47 146.474C640.021 143.481 646.34 141.985 653.428 141.985C662.566 141.985 670.251 144.508 676.485 149.553C682.719 154.513 686.733 161.483 688.526 170.462H661.882C660.345 165.759 657.356 163.407 652.916 163.407C649.756 163.407 647.237 164.732 645.358 167.383C643.565 169.949 642.668 173.754 642.668 178.8C642.668 183.846 643.565 187.694 645.358 190.345C647.237 192.996 649.756 194.321 652.916 194.321C657.442 194.321 660.431 191.97 661.882 187.266H688.526C686.733 196.16 682.719 203.13 676.485 208.175C670.251 213.221 662.566 215.743 653.428 215.743C646.34 215.743 640.021 214.247 634.47 211.254C629.005 208.261 624.735 203.985 621.66 198.426C618.586 192.868 617.049 186.326 617.049 178.8Z" fill="#181818"/>
<path d="M741.356 193.423V214.846H730.468C712.107 214.846 702.927 205.738 702.927 187.523V163.792H694.089V142.883H702.927V125.437H728.162V142.883H741.228V163.792H728.162V187.908C728.162 189.874 728.589 191.286 729.443 192.141C730.382 192.996 731.919 193.423 734.054 193.423H741.356Z" fill="#181818"/>
<path d="M783.102 215.743C777.21 215.743 772 214.717 767.474 212.665C763.034 210.612 759.532 207.748 756.971 204.07C754.409 200.393 753.042 196.288 752.871 191.756H762.351C762.778 196.117 764.699 199.966 768.115 203.301C771.531 206.55 776.526 208.175 783.102 208.175C789.165 208.175 793.947 206.636 797.449 203.557C801.035 200.393 802.829 196.417 802.829 191.628C802.829 187.779 801.847 184.701 799.883 182.392C797.918 179.997 795.485 178.244 792.581 177.132C789.678 175.935 785.664 174.652 780.54 173.284C774.562 171.659 769.823 170.077 766.322 168.538C762.82 166.999 759.831 164.604 757.355 161.354C754.878 158.105 753.64 153.701 753.64 148.142C753.64 143.524 754.836 139.419 757.227 135.828C759.618 132.15 762.991 129.286 767.346 127.233C771.702 125.181 776.697 124.154 782.333 124.154C790.617 124.154 797.278 126.207 802.316 130.312C807.44 134.331 810.386 139.548 811.155 145.961H801.42C800.822 142.284 798.815 139.034 795.399 136.212C791.983 133.305 787.372 131.851 781.565 131.851C776.185 131.851 771.702 133.305 768.115 136.212C764.528 139.034 762.735 142.926 762.735 147.886C762.735 151.648 763.717 154.684 765.681 156.993C767.645 159.302 770.079 161.055 772.982 162.252C775.971 163.45 779.985 164.732 785.023 166.101C790.83 167.726 795.527 169.35 799.114 170.975C802.701 172.514 805.732 174.909 808.209 178.159C810.685 181.408 811.924 185.77 811.924 191.243C811.924 195.433 810.813 199.41 808.593 203.172C806.373 206.935 803.085 209.971 798.73 212.28C794.374 214.589 789.165 215.743 783.102 215.743Z" fill="#181818"/>
<path d="M889.84 144.807V214.846H880.873V202.531C878.824 206.892 875.664 210.228 871.394 212.537C867.124 214.846 862.342 216 857.047 216C848.678 216 841.847 213.434 836.552 208.303C831.257 203.087 828.61 195.561 828.61 185.727V144.807H837.449V184.701C837.449 192.312 839.327 198.127 843.085 202.146C846.928 206.166 852.137 208.175 858.713 208.175C865.459 208.175 870.839 206.037 874.853 201.761C878.866 197.486 880.873 191.2 880.873 182.905V144.807H889.84Z" fill="#181818"/>
<path d="M919.278 157.25C921.242 152.888 924.231 149.51 928.245 147.116C932.344 144.721 937.339 143.524 943.232 143.524V152.888H940.798C934.308 152.888 929.098 154.641 925.17 158.148C921.242 161.654 919.278 167.512 919.278 175.721V214.846H910.311V144.807H919.278V157.25Z" fill="#181818"/>
<path d="M1020 176.234C1020 179.313 1019.91 181.665 1019.74 183.29H961.716C961.973 188.592 963.254 193.124 965.559 196.887C967.865 200.65 970.897 203.514 974.654 205.481C978.412 207.363 982.511 208.303 986.951 208.303C992.758 208.303 997.626 206.892 1001.55 204.07C1005.57 201.248 1008.22 197.443 1009.5 192.654H1018.98C1017.27 199.495 1013.6 205.097 1007.96 209.458C1002.41 213.734 995.406 215.872 986.951 215.872C980.376 215.872 974.483 214.418 969.274 211.51C964.065 208.517 959.966 204.327 956.977 198.939C954.073 193.466 952.622 187.095 952.622 179.826C952.622 172.557 954.073 166.186 956.977 160.713C959.88 155.24 963.937 151.05 969.146 148.142C974.355 145.234 980.29 143.781 986.951 143.781C993.612 143.781 999.419 145.234 1004.37 148.142C1009.41 151.05 1013.25 154.983 1015.9 159.943C1018.63 164.818 1020 170.248 1020 176.234ZM1010.91 175.978C1010.99 170.761 1009.92 166.314 1007.7 162.637C1005.57 158.96 1002.62 156.181 998.864 154.299C995.107 152.418 991.008 151.477 986.567 151.477C979.906 151.477 974.227 153.615 969.53 157.891C964.833 162.167 962.229 168.196 961.716 175.978H1010.91Z" fill="#181818"/>
</svg>
