<svg width="28" height="28" viewBox="0 0 28 28" fill="none" xmlns="http://www.w3.org/2000/svg">
<path d="M14 10.5001V15.1668M14 19.8334H14.0117M25.3517 21.0001L16.0183 4.66677C15.8148 4.30767 15.5197 4.00898 15.1631 3.80118C14.8064 3.59337 14.4011 3.48389 13.9883 3.48389C13.5756 3.48389 13.1702 3.59337 12.8136 3.80118C12.457 4.00898 12.1618 4.30767 11.9583 4.66677L2.62499 21.0001C2.41929 21.3563 2.31143 21.7607 2.31234 22.172C2.31325 22.5834 2.4229 22.9872 2.63018 23.3426C2.83746 23.6979 3.135 23.9921 3.49264 24.1954C3.85028 24.3987 4.2553 24.5038 4.66666 24.5001H23.3333C23.7427 24.4997 24.1448 24.3916 24.4992 24.1866C24.8535 23.9816 25.1477 23.687 25.3523 23.3324C25.5568 22.9778 25.6644 22.5755 25.6643 22.1662C25.6642 21.7568 25.5564 21.3546 25.3517 21.0001Z" stroke="#F13327" stroke-width="2.5" stroke-linecap="round" stroke-linejoin="round"/>
</svg>
