<svg width="412" height="412" viewBox="0 0 412 412" fill="none" xmlns="http://www.w3.org/2000/svg">
<g opacity="0.5">
<path d="M381.773 253C392.68 251.227 402.352 245.783 409.477 237.981C411.138 227.463 412 216.68 412 205.696C412 92.0933 319.771 0 206 0C92.2293 0 0 92.0933 0 205.696C0 216.68 0.862201 227.463 2.52271 237.981C9.64817 245.783 19.3204 251.227 30.2268 253C26.1658 237.917 24 222.059 24 205.696C24 105.329 105.484 23.9646 206 23.9646C306.516 23.9646 388 105.329 388 205.696C388 222.059 385.834 237.917 381.773 253Z" fill="#F13327"/>
<path d="M357 205.696C357 217.805 355.576 229.555 352.893 240.802C340.987 233.648 333.016 220.624 333 205.742L333 205.696C333 135.659 276.14 78.8834 206 78.8834C135.86 78.8834 79 135.659 79 205.696C79 220.597 71.0254 233.64 59.1071 240.802C56.4235 229.555 55 217.805 55 205.696C55 122.424 122.605 54.9189 206 54.9189C289.395 54.9189 357 122.424 357 205.696Z" fill="#F13327"/>
<path d="M271.155 175.062C276.637 171.693 283.091 169.749 290 169.749C291.756 169.749 293.482 169.875 295.17 170.117C281.021 134.792 246.429 109.838 206 109.838C165.571 109.838 130.979 134.792 116.83 170.117C118.518 169.875 120.244 169.749 122 169.749C128.909 169.749 135.363 171.693 140.845 175.062C152.364 150.677 177.208 133.802 206 133.802C234.792 133.802 259.636 150.677 271.155 175.062Z" fill="#F13327"/>
</g>
<circle cx="206" cy="206" r="33" fill="#F13327" stroke="#F13327" stroke-width="24"/>
<path fill-rule="evenodd" clip-rule="evenodd" d="M12.9326 278H38C77.7645 278 110 245.764 110 206C110 199.373 115.373 194 122 194C128.627 194 134 199.373 134 206C134 245.764 166.236 278 206 278C245.765 278 278 245.764 278 206C278 199.373 283.373 194 290 194C296.627 194 302 199.373 302 206C302 245.764 334.236 278 374 278H399.067C395.984 286.264 392.386 294.277 388.311 302H374C345.327 302 319.591 289.43 302 269.5V325H374.172C368.147 333.499 361.494 341.522 354.28 349H302V388.31C294.576 392.228 286.884 395.705 278.958 398.707C278.341 397.262 278 395.671 278 394V349H134V394C134 395.671 133.659 397.262 133.042 398.707C125.116 395.705 117.424 392.228 110 388.31V349H57.7196C50.506 341.522 43.8529 333.499 37.8279 325H110V269.5C92.4094 289.43 66.6727 302 38 302H23.6896C19.6146 294.277 16.0159 286.264 12.9326 278ZM278 269.5V325H134V269.5C151.591 289.43 177.327 302 206 302C234.673 302 260.409 289.43 278 269.5Z" fill="#181818"/>
</svg>
